<svg xmlns="http://www.w3.org/2000/svg" viewBox="0 0 88.7 33.64"><defs><style>.cls-1,.cls-4{fill:#0e395c;}.cls-2{fill:#eaeaea;}.cls-3{fill:#145182;}.cls-4{font-size:3.82px;font-family:ConcertOne-Regular, Concert One;}</style></defs><title>Asset 6</title><g id="Layer_2" data-name="Layer 2"><g id="OBJECTS"><path class="cls-1" d="M37.21,27.8a1.74,1.74,0,0,1-1.47-.7,3.1,3.1,0,0,1-.52-1.91,4.43,4.43,0,0,1,.07-.83,3,3,0,0,1,.22-.7,1.37,1.37,0,0,1,.38-.49.84.84,0,0,1,.54-.18.81.81,0,0,1,.43.11.78.78,0,0,1,.26.25.56.56,0,0,1,.08.25,2.2,2.2,0,0,0-.35.33,1.1,1.1,0,0,0-.24.47,2.78,2.78,0,0,0-.09.78,3.37,3.37,0,0,0,0,.58,1.68,1.68,0,0,0,.1.44.84.84,0,0,0,.15.3.79.79,0,0,0,.19.18.42.42,0,0,0,.21.06h3a.55.55,0,0,0,.37-.13.8.8,0,0,0,.22-.34,1.12,1.12,0,0,0,.07-.4V24.14a.86.86,0,0,1,.14-.46.7.7,0,0,1,1,0,.78.78,0,0,1,.14.46v1.73a2,2,0,0,1-.25,1,1.93,1.93,0,0,1-.7.69,2,2,0,0,1-1,.25Zm.69-5.06a.61.61,0,0,1-.45-.19.63.63,0,0,1-.2-.46.67.67,0,0,1,.65-.65.65.65,0,0,1,.66.65.66.66,0,0,1-.19.46A.64.64,0,0,1,37.9,22.74Zm1.63,0a.65.65,0,0,1-.65-.65.6.6,0,0,1,.19-.46.62.62,0,0,1,.46-.19.65.65,0,0,1,.65.65.62.62,0,0,1-.19.46A.6.6,0,0,1,39.53,22.74Zm3.34,5.06a2,2,0,0,1-1-.25,1.86,1.86,0,0,1-.7-.69,2,2,0,0,1-.26-1h1.3a1.4,1.4,0,0,0,.07.4.8.8,0,0,0,.22.34.59.59,0,0,0,.37.13h.31V27.8Zm.31,0V26.74c.08,0,.13.05.16.14a1.37,1.37,0,0,1,0,.39,1.25,1.25,0,0,1,0,.38C43.31,27.75,43.26,27.8,43.18,27.8Z"/><path class="cls-1" d="M43.18,27.8q-.09,0-.15-.15a1.25,1.25,0,0,1-.05-.38,1.37,1.37,0,0,1,.05-.39c0-.09.09-.14.15-.14Zm0,0V26.74h3.93a.46.46,0,0,0,.34-.15.68.68,0,0,0,.14-.49.71.71,0,0,0-.14-.51.46.46,0,0,0-.34-.15H45.56a2.78,2.78,0,0,1-1.13-.23,2.08,2.08,0,0,1-.82-.62,1.47,1.47,0,0,1-.31-.9,1.44,1.44,0,0,1,.31-.9,2,2,0,0,1,.82-.63,2.78,2.78,0,0,1,1.13-.22h2a1.45,1.45,0,0,0,.69-.14,3.35,3.35,0,0,0,.36-.23,1.29,1.29,0,0,1,0,.43,1.66,1.66,0,0,1-.17.47,1,1,0,0,1-.34.38.86.86,0,0,1-.52.15h-2a1.15,1.15,0,0,0-.69.2.59.59,0,0,0,0,1,1.15,1.15,0,0,0,.69.19h1.75a1.52,1.52,0,0,1,.83.23,1.57,1.57,0,0,1,.56.61,2,2,0,0,1,.2.89,1.89,1.89,0,0,1-.2.87,1.57,1.57,0,0,1-.56.61,1.51,1.51,0,0,1-.83.22Z"/><path class="cls-1" d="M50.72,30.1A.7.7,0,0,1,50.3,30a.78.78,0,0,1-.26-.25.59.59,0,0,1-.08-.25,1.54,1.54,0,0,0,.36-.36,1.34,1.34,0,0,0,.23-.51,3,3,0,0,0,.09-.81V23.61a.55.55,0,0,1,.19-.45.65.65,0,0,1,.46-.17.68.68,0,0,1,.47.17.58.58,0,0,1,.18.45V27.8a4.72,4.72,0,0,1-.07.85,3.59,3.59,0,0,1-.22.74,1.27,1.27,0,0,1-.38.51A.83.83,0,0,1,50.72,30.1Z"/><path class="cls-1" d="M55.52,27.8a2,2,0,0,1-1-.25,1.93,1.93,0,0,1-.7-.69,2,2,0,0,1-.25-1V22.66a1.13,1.13,0,0,0-.09-.52.42.42,0,0,0-.21-.21l-.16-.08a.56.56,0,0,1,.07-.24.69.69,0,0,1,.25-.29.78.78,0,0,1,.48-.13.84.84,0,0,1,.5.15,1,1,0,0,1,.34.43,1.52,1.52,0,0,1,.12.62v3.48a1.12,1.12,0,0,0,.07.4.8.8,0,0,0,.22.34.57.57,0,0,0,.37.13h.27V27.8Zm.27,0V26.74a.18.18,0,0,1,.16.14,1.41,1.41,0,0,1,0,.39,1.29,1.29,0,0,1,0,.38C55.92,27.75,55.86,27.8,55.79,27.8Z"/><path class="cls-1" d="M55.79,27.8q-.1,0-.15-.15a1.25,1.25,0,0,1,0-.38,1.37,1.37,0,0,1,0-.39c0-.09.08-.14.15-.14Zm0,0V26.74h2.53a.78.78,0,0,0,.69-.36,1.75,1.75,0,0,0,.24-1,1.64,1.64,0,0,0-.26-1,1,1,0,0,0-.78-.31l-.28,0-.21,0v3.7h-1.3V24.1a.92.92,0,0,1,.5-.79A2.37,2.37,0,0,1,58.21,23a2.3,2.3,0,0,1,1.7.63,2.36,2.36,0,0,1,.64,1.77,2.77,2.77,0,0,1-.28,1.3,2,2,0,0,1-.76.82,1.92,1.92,0,0,1-1.06.29Z"/><path class="cls-1" d="M64.85,30.59a.84.84,0,0,1-.47-.13.87.87,0,0,1-.25-.3.56.56,0,0,1-.07-.24l.17-.08a.45.45,0,0,0,.2-.21,1.13,1.13,0,0,0,.09-.52v-.69a1.39,1.39,0,0,1,.28-.87,2,2,0,0,1,.75-.6,2.56,2.56,0,0,1,1-.21h.59a.8.8,0,0,0,.7-.35,1.8,1.8,0,0,0,.24-1,1.62,1.62,0,0,0-.26-1,1,1,0,0,0-.8-.31l-.26,0-.21,0v3.7H65.3V24.1a.92.92,0,0,1,.5-.79A2.36,2.36,0,0,1,67.08,23a2.31,2.31,0,0,1,1.71.63,2.36,2.36,0,0,1,.64,1.77,2.77,2.77,0,0,1-.28,1.3,2,2,0,0,1-.76.82,2,2,0,0,1-1.07.29H66.6a.91.91,0,0,0-.43.09.52.52,0,0,0-.26.22.56.56,0,0,0-.09.31v1a1.49,1.49,0,0,1-.12.62,1,1,0,0,1-.33.43A.91.91,0,0,1,64.85,30.59Z"/><path class="cls-1" d="M73,27.8a2,2,0,0,1-1-.25,1.86,1.86,0,0,1-.7-.69,2,2,0,0,1-.26-1V22.66a1.13,1.13,0,0,0-.09-.52.41.41,0,0,0-.2-.21l-.17-.08a.6.6,0,0,1,.08-.24.69.69,0,0,1,.25-.29.73.73,0,0,1,.47-.13.85.85,0,0,1,.51.15,1.1,1.1,0,0,1,.33.43,1.52,1.52,0,0,1,.13.62v3.48a1.12,1.12,0,0,0,.07.4.72.72,0,0,0,.22.34.57.57,0,0,0,.37.13h.27V27.8Zm.27,0V26.74c.07,0,.12.05.15.14a1.37,1.37,0,0,1,0,.39,1.25,1.25,0,0,1,0,.38Q73.39,27.8,73.28,27.8Z"/><path class="cls-1" d="M73.28,27.8q-.11,0-.15-.15a1,1,0,0,1,0-.38,1.09,1.09,0,0,1,0-.39c0-.09.08-.14.15-.14Zm0,0V26.74h.51a.55.55,0,0,0,.37-.13.8.8,0,0,0,.22-.34,1.12,1.12,0,0,0,.07-.4V24.2a.82.82,0,0,1,.14-.44.7.7,0,0,1,1,0,.74.74,0,0,1,.14.44v1.67a2,2,0,0,1-.25,1,1.93,1.93,0,0,1-.7.69,2,2,0,0,1-1,.25Zm3.13,0a1.88,1.88,0,0,1-2-1.93h1.3a1.16,1.16,0,0,0,.07.4.83.83,0,0,0,.22.33.55.55,0,0,0,.37.14h.22V27.8Zm.22,0V26.74H77a.58.58,0,0,0,.38-.13.8.8,0,0,0,.22-.34,1.4,1.4,0,0,0,.07-.4V24a.74.74,0,0,1,.14-.44.54.54,0,0,1,.51-.22.56.56,0,0,1,.51.22A.82.82,0,0,1,79,24v1.91a2,2,0,0,1-.26,1,1.9,1.9,0,0,1-.69.69,2,2,0,0,1-1,.25Zm.88-5.46a.61.61,0,0,1-.45-.19.63.63,0,0,1-.2-.46.67.67,0,0,1,.65-.65.63.63,0,0,1,.47.19.64.64,0,0,1,.19.46.66.66,0,0,1-.19.46A.63.63,0,0,1,77.51,22.34Zm2.13,5.46a2,2,0,0,1-1-.25,1.93,1.93,0,0,1-.7-.69,2,2,0,0,1-.25-1H79a1.18,1.18,0,0,0,.07.41.83.83,0,0,0,.22.33.57.57,0,0,0,.37.13h.22V27.8Zm-1.31-6.95a.55.55,0,0,1-.43-.18.63.63,0,0,1,0-.86.58.58,0,0,1,.43-.17.59.59,0,0,1,.42.17.58.58,0,0,1,.18.42.59.59,0,0,1-.18.44A.56.56,0,0,1,78.33,20.85Zm.81,1.49a.63.63,0,0,1-.46-.19.62.62,0,0,1-.19-.46.6.6,0,0,1,.19-.46.63.63,0,0,1,.46-.19.59.59,0,0,1,.46.19.6.6,0,0,1,.19.46.62.62,0,0,1-.19.46A.59.59,0,0,1,79.14,22.34Zm.72,5.46V26.74h.38a.6.6,0,0,0,.38-.13.79.79,0,0,0,.21-.34,1.12,1.12,0,0,0,.07-.4V23.65a.82.82,0,0,1,.14-.44.56.56,0,0,1,.51-.22.54.54,0,0,1,.51.22.75.75,0,0,1,.15.44v2.22a2,2,0,0,1-.26,1,1.86,1.86,0,0,1-.7.69,2,2,0,0,1-1,.25Zm3,0a2,2,0,0,1-1-.25,1.86,1.86,0,0,1-.7-.69,2,2,0,0,1-.26-1h1.31a1.12,1.12,0,0,0,.07.4.72.72,0,0,0,.22.34.57.57,0,0,0,.37.13h.51V27.8Zm.51,0V26.74c.07,0,.12.05.15.14a1.37,1.37,0,0,1,0,.39,1.25,1.25,0,0,1,0,.38Q83.49,27.8,83.38,27.8Z"/><path class="cls-1" d="M83.38,27.8q-.1,0-.15-.15a1,1,0,0,1,0-.38,1.09,1.09,0,0,1,0-.39c0-.09.08-.14.15-.14Zm0,0V26.74h.51a.55.55,0,0,0,.37-.13.8.8,0,0,0,.22-.34,1.12,1.12,0,0,0,.07-.4V22.66a1.13,1.13,0,0,0-.09-.52.45.45,0,0,0-.2-.21l-.17-.08a.63.63,0,0,1,.07-.25.82.82,0,0,1,.25-.28.77.77,0,0,1,.47-.13.91.91,0,0,1,.52.15,1.1,1.1,0,0,1,.33.43,1.52,1.52,0,0,1,.12.62v3.48a2,2,0,0,1-.25,1,1.93,1.93,0,0,1-.7.69,2,2,0,0,1-1,.25Z"/><path class="cls-1" d="M88.05,27.8a.54.54,0,0,1-.51-.22.76.76,0,0,1-.14-.46V22.66a1.13,1.13,0,0,0-.09-.52.42.42,0,0,0-.21-.21l-.17-.08a.6.6,0,0,1,.08-.24.69.69,0,0,1,.25-.29.78.78,0,0,1,.48-.13.84.84,0,0,1,.5.15,1,1,0,0,1,.34.43,1.52,1.52,0,0,1,.12.62v4.75a.82.82,0,0,1-.14.44A.56.56,0,0,1,88.05,27.8Z"/><path class="cls-2" d="M30.48,32.26c0,.51-4.5.93-10,.93s-10-.42-10-.93,4.5-.94,10-.94S30.48,31.74,30.48,32.26Z"/><path class="cls-2" d="M87.73,32.26c0,.76-11.57,1.38-25.85,1.38S36,33,36,32.26s11.58-1.38,25.85-1.38S87.73,31.49,87.73,32.26Z"/><path class="cls-1" d="M29.37,20.81H12.06a.87.87,0,0,1-.77-.49l-5-10.9A2.71,2.71,0,0,0,3.83,7.84H.88a.88.88,0,0,0,0,1.76h3a1,1,0,0,1,.87.55l5,10.9a2.61,2.61,0,0,0,2.36,1.52H29.37a2.31,2.31,0,0,1,1.85,3.68,2.32,2.32,0,0,1-1.85.93H10.77a.88.88,0,0,0,0,1.76H14a1.23,1.23,0,0,0-.28.77,1.22,1.22,0,1,0,2.43,0,1.18,1.18,0,0,0-.29-.77h10.1a1.42,1.42,0,0,0-.23.44,1.24,1.24,0,0,0,0,.33,1.21,1.21,0,0,0,2.36.4,1.29,1.29,0,0,0,.07-.4,1.23,1.23,0,0,0-.28-.77h1.55A4,4,0,0,0,33,26.63a4,4,0,0,0,.4-1.76A4.06,4.06,0,0,0,29.37,20.81Z"/><path class="cls-1" d="M29.71,18.92a.88.88,0,0,1-.72.37H14.58a.88.88,0,0,1-.85-1.13l1.39-4.56,2.16-7.1a.87.87,0,0,1,.84-.62H24v-1a0,0,0,0,1,0,0,4.09,4.09,0,0,0-.84-2.54,1.84,1.84,0,0,0-1.39-.52,2.27,2.27,0,0,0-2.39,2.33.89.89,0,0,1-.91.85.87.87,0,0,1-.85-.89,4,4,0,0,1,4.15-4,3.59,3.59,0,0,1,2.66,1.06,5.76,5.76,0,0,1,1.32,3.8v1.9a.87.87,0,0,1-.88.88H18.77l-2.44,8-.57,1.87h12l-2.55-7a.88.88,0,1,1,1.66-.6l3,8.15A.87.87,0,0,1,29.71,18.92Z"/><path class="cls-3" d="M18.77,7.64l-2.44,8a23.62,23.62,0,0,1-1.21-2.06l2.16-7.1a.87.87,0,0,1,.84-.62H24v-1a0,0,0,0,1,0,0,4.09,4.09,0,0,0-.84-2.54,1.84,1.84,0,0,0-1.39-.52,2.27,2.27,0,0,0-2.39,2.33.89.89,0,0,1-.91.85.87.87,0,0,1-.85-.89,4,4,0,0,1,4.15-4,3.59,3.59,0,0,1,2.66,1.06,5.76,5.76,0,0,1,1.32,3.8v1.9a.87.87,0,0,1-.88.88Z"/><path class="cls-3" d="M29,19.29H19.23c-.54-.56-1.05-1.15-1.54-1.76h10l-2.55-7a.88.88,0,1,1,1.66-.6l3,8.15A.88.88,0,0,1,29,19.29Z"/><path class="cls-3" d="M33.43,24.87a4,4,0,0,1-.4,1.76c-.61-.11-1.21-.23-1.81-.38a2.31,2.31,0,0,0-1.85-3.68H23.09a25.94,25.94,0,0,1-2.27-1.76h8.55A4.06,4.06,0,0,1,33.43,24.87Z"/><text class="cls-4" transform="translate(11 26.13)">S</text><text class="cls-4" transform="translate(12.89 26.13) scale(0.7)">HAME</text><text class="cls-4" transform="translate(19.21 26.13)"><tspan xml:space="preserve"> M</tspan></text><text class="cls-4" transform="translate(23.67 26.13) scale(0.7)">ARKET</text></g></g></svg>