<?xml version="1.0" encoding="utf-8"?>
<!-- Generator: Adobe Illustrator 23.0.2, SVG Export Plug-In . SVG Version: 6.00 Build 0)  -->
<svg version="1.1" xmlns="http://www.w3.org/2000/svg" xmlns:xlink="http://www.w3.org/1999/xlink" x="0px" y="0px"
	 viewBox="0 0 500 500" style="enable-background:new 0 0 500 500;" xml:space="preserve">
<style type="text/css">
	.st0{fill:#FFFFFF;}
	.st1{fill:#EAEAEA;}
	.st2{fill:#0E395C;}
	.st3{fill:#145182;}
</style>
<g id="BACKGROUND">
	<rect class="st0" width="500" height="500"/>
</g>
<g id="OBJECTS">
	<g>
		<path class="st1" d="M297.33,271.86c0,2.97-25.82,5.38-57.67,5.38s-57.68-2.41-57.68-5.38c0-2.97,25.82-5.38,57.68-5.38
			S297.33,268.89,297.33,271.86z"/>
		<g>
			<g>
				<path class="st2" d="M290.94,212.05h-99.43c-1.89,0-3.62-1.11-4.4-2.82l-28.74-62.6c-2.52-5.51-8.08-9.06-14.14-9.06h-16.96
					c-2.8,0-5.06,2.26-5.06,5.05s2.26,5.05,5.06,5.05h16.96c2.13,0,4.07,1.25,4.96,3.18l28.73,62.6c2.43,5.29,7.76,8.72,13.59,8.72
					h99.43c7.31,0,13.26,5.95,13.26,13.26c0,2.95-0.96,5.68-2.59,7.88c-2.43,3.26-6.31,5.39-10.67,5.39H184.11
					c-2.78,0-5.05,2.25-5.05,5.05c0,2.78,2.26,5.05,5.05,5.05h18.45c-1.01,1.21-1.64,2.75-1.64,4.44c0,3.86,3.13,6.98,6.98,6.98
					c3.86,0,6.98-3.13,6.98-6.98c0-1.7-0.63-3.23-1.64-4.44h58.03c-0.6,0.74-1.06,1.59-1.33,2.54c-0.16,0.6-0.26,1.25-0.26,1.91
					c0,3.85,3.13,6.98,6.98,6.98c3.06,0,5.65-1.96,6.6-4.69c0.25-0.71,0.38-1.48,0.38-2.29c0-1.69-0.6-3.24-1.59-4.44h8.89
					c9.28,0,17.31-5.43,21.08-13.29c1.47-3.04,2.29-6.47,2.29-10.08C314.31,222.53,303.83,212.05,290.94,212.05z"/>
				<g>
					<path class="st2" d="M292.93,201.19c-0.95,1.34-2.48,2.15-4.14,2.15h-82.82c-1.6,0-3.11-0.75-4.06-2.04
						c-0.96-1.29-1.25-2.95-0.78-4.48l7.95-26.16l12.4-40.79c0.66-2.13,2.62-3.58,4.84-3.58h33.82v-5.94c0-0.04,0-0.1,0.01-0.14
						c0.04-2.63-0.7-10.44-4.77-14.59c-1.99-2.03-4.61-3.02-7.99-3.02c-12.67,0-13.7,11.18-13.78,13.41
						c-0.1,2.77-2.41,4.96-5.18,4.88c-2.78-0.07-4.98-2.36-4.91-5.14c0.18-8.04,5.4-23.26,23.87-23.26c6.18,0,11.31,2.06,15.26,6.1
						c7.64,7.84,7.62,20.53,7.6,21.8v10.93c0,2.8-2.26,5.06-5.05,5.06h-35.13l-14,46.07l-3.28,10.78h68.78l-14.64-40.07
						c-0.96-2.62,0.38-5.51,3-6.47c2.62-0.96,5.53,0.38,6.49,3l17.13,46.86C294.11,198.11,293.88,199.84,292.93,201.19z"/>
				</g>
			</g>
			<g>
				<path class="st3" d="M230.06,136.39l-14,46.07c-2.52-3.81-4.85-7.75-6.98-11.81l12.4-40.79c0.66-2.13,2.62-3.58,4.84-3.58h33.82
					v-5.94c0-0.04,0-0.1,0.01-0.14c0.04-2.63-0.7-10.44-4.77-14.59c-1.99-2.03-4.61-3.02-7.99-3.02c-12.67,0-13.7,11.18-13.78,13.41
					c-0.1,2.77-2.41,4.96-5.18,4.88c-2.78-0.07-4.98-2.36-4.91-5.14c0.18-8.04,5.4-23.26,23.87-23.26c6.18,0,11.31,2.06,15.26,6.1
					c7.64,7.84,7.62,20.53,7.6,21.8v10.93c0,2.8-2.26,5.06-5.05,5.06H230.06z"/>
				<path class="st3" d="M288.79,203.35h-56.06c-3.13-3.22-6.07-6.6-8.87-10.11h57.7l-14.64-40.07c-0.96-2.62,0.38-5.51,3-6.47
					c2.62-0.96,5.53,0.38,6.49,3l17.13,46.86c0.58,1.55,0.34,3.28-0.6,4.63C291.99,202.54,290.45,203.35,288.79,203.35z"/>
				<path class="st3" d="M314.31,235.42c0,3.61-0.82,7.03-2.29,10.08c-3.51-0.6-6.99-1.33-10.41-2.19c1.63-2.21,2.59-4.94,2.59-7.88
					c0-7.31-5.95-13.26-13.26-13.26h-36.08c-4.53-3.11-8.87-6.49-13-10.11h49.08C303.83,212.05,314.31,222.53,314.31,235.42z"/>
			</g>
		</g>
	</g>
</g>
</svg>
