<?xml version="1.0" encoding="utf-8"?>
<!-- Generator: Adobe Illustrator 23.0.2, SVG Export Plug-In . SVG Version: 6.00 Build 0)  -->
<svg version="1.1" id="Layer_1" xmlns="http://www.w3.org/2000/svg" xmlns:xlink="http://www.w3.org/1999/xlink" x="0px" y="0px"
	 viewBox="0 0 64 24" style="enable-background:new 0 0 64 24;" xml:space="preserve">
<style type="text/css">
	.st0{fill:#00365D;}
	.st1{fill:#EAEAEA;}
	.st2{fill:#005084;}
</style>
<g>
	<path class="st0" d="M18.955,14.896c-0.541,0-0.962-0.2-1.264-0.6s-0.453-0.947-0.453-1.643c0-0.253,0.022-0.493,0.065-0.721
		c0.043-0.227,0.106-0.428,0.19-0.604c0.083-0.175,0.191-0.314,0.323-0.418s0.288-0.155,0.466-0.155
		c0.149,0,0.273,0.031,0.371,0.095s0.171,0.135,0.22,0.216c0.048,0.08,0.073,0.152,0.073,0.216
		c-0.115,0.086-0.217,0.181-0.306,0.284c-0.089,0.104-0.159,0.238-0.208,0.405s-0.073,0.392-0.073,0.673
		c0,0.185,0.01,0.35,0.03,0.496c0.02,0.146,0.049,0.273,0.086,0.38c0.037,0.106,0.082,0.192,0.134,0.259s0.106,0.116,0.164,0.151
		c0.058,0.034,0.118,0.052,0.181,0.052h2.614c0.132,0,0.24-0.038,0.323-0.112c0.083-0.075,0.146-0.171,0.186-0.289
		c0.041-0.118,0.061-0.234,0.061-0.35v-1.483c0-0.145,0.04-0.278,0.121-0.401c0.081-0.124,0.227-0.186,0.44-0.186
		s0.359,0.062,0.44,0.186c0.081,0.123,0.121,0.257,0.121,0.401v1.483c0,0.316-0.073,0.602-0.22,0.854
		c-0.146,0.253-0.346,0.451-0.6,0.595c-0.253,0.144-0.543,0.216-0.871,0.216H18.955z M19.551,10.54c-0.15,0-0.281-0.055-0.393-0.164
		c-0.112-0.109-0.168-0.241-0.168-0.396s0.056-0.288,0.168-0.397c0.112-0.109,0.243-0.164,0.393-0.164
		c0.155,0,0.287,0.055,0.396,0.164s0.164,0.242,0.164,0.397s-0.055,0.287-0.164,0.396S19.706,10.54,19.551,10.54z M20.948,10.54
		c-0.15,0-0.28-0.055-0.393-0.164s-0.168-0.241-0.168-0.396s0.056-0.288,0.168-0.397s0.243-0.164,0.393-0.164
		c0.161,0,0.294,0.055,0.401,0.164s0.16,0.242,0.16,0.397s-0.053,0.287-0.16,0.396S21.109,10.54,20.948,10.54z M23.83,14.896
		c-0.322,0-0.611-0.072-0.867-0.216s-0.457-0.342-0.604-0.595c-0.146-0.253-0.22-0.538-0.22-0.854h1.122
		c0,0.115,0.02,0.231,0.06,0.35c0.041,0.118,0.104,0.214,0.19,0.289c0.086,0.074,0.193,0.112,0.319,0.112h0.268v0.914H23.83z
		 M24.097,14.896v-0.914c0.063,0,0.107,0.041,0.133,0.125c0.026,0.083,0.039,0.193,0.039,0.332c0,0.138-0.013,0.249-0.039,0.332
		S24.16,14.896,24.097,14.896z"/>
	<path class="st0" d="M24.097,14.896c-0.058,0-0.101-0.042-0.129-0.125s-0.043-0.194-0.043-0.332c0-0.139,0.014-0.249,0.043-0.332
		c0.029-0.084,0.072-0.125,0.129-0.125V14.896z M24.097,14.896v-0.914h3.382c0.109,0,0.206-0.044,0.289-0.13
		c0.083-0.086,0.125-0.228,0.125-0.423c0-0.201-0.042-0.347-0.125-0.435c-0.083-0.089-0.18-0.134-0.289-0.134h-1.337
		c-0.356,0-0.681-0.064-0.975-0.194c-0.293-0.129-0.528-0.308-0.703-0.534c-0.176-0.228-0.263-0.484-0.263-0.772
		c0-0.293,0.087-0.554,0.263-0.78c0.175-0.228,0.41-0.406,0.703-0.535c0.293-0.13,0.618-0.194,0.975-0.194h1.743
		c0.253,0,0.449-0.039,0.587-0.116c0.138-0.078,0.241-0.146,0.311-0.203c0.017,0.109,0.013,0.233-0.013,0.371
		s-0.075,0.273-0.146,0.405c-0.072,0.133-0.168,0.242-0.289,0.328s-0.271,0.129-0.449,0.129h-1.743
		c-0.241,0-0.438,0.057-0.591,0.169s-0.229,0.254-0.229,0.427c0,0.167,0.076,0.307,0.229,0.418c0.152,0.112,0.35,0.169,0.591,0.169
		h1.51c0.271,0,0.508,0.064,0.712,0.194c0.204,0.129,0.364,0.305,0.479,0.525c0.115,0.222,0.173,0.476,0.173,0.763
		c0,0.282-0.058,0.534-0.173,0.755c-0.115,0.222-0.274,0.396-0.479,0.522c-0.204,0.126-0.441,0.189-0.712,0.189H24.097z"/>
	<path class="st0" d="M30.584,16.871c-0.144,0-0.265-0.031-0.362-0.095s-0.171-0.137-0.22-0.22
		c-0.049-0.084-0.074-0.154-0.074-0.212c0.121-0.092,0.225-0.195,0.311-0.311c0.086-0.115,0.154-0.263,0.203-0.444
		c0.049-0.181,0.073-0.413,0.073-0.694V11.29c0-0.166,0.053-0.297,0.16-0.393c0.106-0.095,0.24-0.142,0.401-0.142
		c0.167,0,0.302,0.047,0.406,0.142c0.104,0.096,0.155,0.227,0.155,0.393v3.606c0,0.253-0.021,0.497-0.064,0.733
		c-0.043,0.235-0.107,0.447-0.19,0.634c-0.083,0.188-0.191,0.335-0.323,0.444S30.768,16.871,30.584,16.871z"/>
	<path class="st0" d="M34.717,14.896c-0.322,0-0.611-0.072-0.867-0.216s-0.457-0.342-0.604-0.595
		c-0.146-0.253-0.22-0.538-0.22-0.854v-2.76c0-0.207-0.025-0.356-0.077-0.448S32.839,9.87,32.775,9.84
		c-0.063-0.028-0.112-0.052-0.146-0.068c0-0.047,0.021-0.115,0.064-0.207c0.043-0.093,0.115-0.176,0.216-0.251
		c0.101-0.074,0.237-0.111,0.409-0.111c0.167,0,0.313,0.044,0.437,0.133c0.123,0.09,0.22,0.212,0.288,0.367
		c0.069,0.155,0.104,0.334,0.104,0.535v2.993c0,0.115,0.02,0.231,0.06,0.35s0.104,0.214,0.19,0.289
		c0.086,0.074,0.192,0.112,0.319,0.112h0.232v0.914H34.717z M34.949,14.896v-0.914c0.063,0,0.108,0.041,0.134,0.125
		c0.026,0.083,0.039,0.193,0.039,0.332c0,0.138-0.013,0.249-0.039,0.332C35.058,14.854,35.013,14.896,34.949,14.896z"/>
	<path class="st0" d="M34.949,14.896c-0.058,0-0.101-0.042-0.13-0.125c-0.028-0.083-0.043-0.194-0.043-0.332
		c0-0.139,0.015-0.249,0.043-0.332c0.029-0.084,0.072-0.125,0.13-0.125V14.896z M34.949,14.896v-0.914h2.174
		c0.265,0,0.465-0.103,0.6-0.307s0.203-0.49,0.203-0.858c0-0.408-0.075-0.701-0.225-0.88s-0.374-0.268-0.673-0.268
		c-0.086,0-0.167,0.004-0.241,0.013c-0.075,0.009-0.133,0.019-0.173,0.03v3.183h-1.121v-3.183c0-0.275,0.142-0.505,0.427-0.686
		c0.284-0.182,0.654-0.271,1.108-0.271c0.615,0,1.105,0.181,1.471,0.543s0.548,0.869,0.548,1.519c0,0.437-0.08,0.81-0.241,1.121
		s-0.378,0.548-0.651,0.712s-0.58,0.246-0.919,0.246H34.949z"/>
	<path class="st0" d="M42.748,17.294c-0.167,0-0.301-0.037-0.401-0.112s-0.172-0.158-0.215-0.25
		c-0.044-0.092-0.065-0.161-0.065-0.207c0.035-0.018,0.084-0.04,0.147-0.069c0.063-0.028,0.12-0.091,0.172-0.186
		s0.078-0.243,0.078-0.444v-0.595c0-0.282,0.08-0.532,0.241-0.751s0.377-0.39,0.647-0.513c0.27-0.124,0.572-0.186,0.905-0.186h0.509
		c0.265,0,0.465-0.101,0.6-0.303c0.136-0.201,0.203-0.491,0.203-0.871c0-0.402-0.075-0.692-0.225-0.871s-0.376-0.268-0.682-0.268
		c-0.074,0-0.15,0.004-0.229,0.013c-0.077,0.009-0.137,0.019-0.177,0.03v3.183h-1.121v-3.183c0-0.275,0.143-0.505,0.427-0.686
		c0.285-0.182,0.654-0.271,1.108-0.271c0.615,0,1.105,0.181,1.471,0.543s0.548,0.869,0.548,1.519c0,0.437-0.08,0.81-0.241,1.121
		s-0.378,0.548-0.651,0.712s-0.579,0.246-0.919,0.246h-0.621c-0.149,0-0.274,0.024-0.375,0.073s-0.176,0.113-0.225,0.194
		c-0.049,0.08-0.073,0.17-0.073,0.268v0.828c0,0.201-0.034,0.379-0.104,0.534c-0.069,0.156-0.165,0.278-0.289,0.367
		S42.921,17.294,42.748,17.294z"/>
	<path class="st0" d="M49.771,14.896c-0.322,0-0.611-0.072-0.867-0.216s-0.457-0.342-0.604-0.595
		c-0.146-0.253-0.22-0.538-0.22-0.854v-2.76c0-0.207-0.025-0.356-0.077-0.448S47.893,9.87,47.829,9.84
		c-0.063-0.028-0.112-0.052-0.146-0.068c0-0.047,0.021-0.115,0.064-0.207c0.043-0.093,0.115-0.176,0.216-0.251
		c0.101-0.074,0.237-0.111,0.409-0.111c0.167,0,0.313,0.044,0.437,0.133c0.123,0.09,0.22,0.212,0.288,0.367
		c0.069,0.155,0.104,0.334,0.104,0.535v2.993c0,0.115,0.02,0.231,0.06,0.35s0.104,0.214,0.19,0.289
		c0.086,0.074,0.192,0.112,0.319,0.112h0.232v0.914H49.771z M50.003,14.896v-0.914c0.063,0,0.108,0.041,0.134,0.125
		c0.026,0.083,0.039,0.193,0.039,0.332c0,0.138-0.013,0.249-0.039,0.332C50.111,14.854,50.066,14.896,50.003,14.896z"/>
	<path class="st0" d="M50.003,14.896c-0.058,0-0.101-0.042-0.13-0.125c-0.028-0.083-0.043-0.194-0.043-0.332
		c0-0.139,0.015-0.249,0.043-0.332c0.029-0.084,0.072-0.125,0.13-0.125V14.896z M50.003,14.896v-0.914h0.44
		c0.132,0,0.239-0.038,0.323-0.112c0.083-0.075,0.145-0.171,0.186-0.289c0.04-0.118,0.061-0.234,0.061-0.35v-1.431
		c0-0.133,0.04-0.261,0.12-0.385c0.081-0.123,0.228-0.185,0.44-0.185s0.359,0.062,0.439,0.185c0.081,0.124,0.121,0.252,0.121,0.385
		v1.431c0,0.316-0.073,0.602-0.22,0.854s-0.347,0.451-0.6,0.595s-0.544,0.216-0.871,0.216H50.003z M52.703,14.896
		c-0.322,0-0.611-0.072-0.867-0.216s-0.457-0.342-0.604-0.595s-0.22-0.538-0.22-0.854h1.121c0,0.115,0.021,0.23,0.061,0.345
		c0.04,0.115,0.104,0.212,0.189,0.289c0.087,0.078,0.192,0.117,0.319,0.117h0.189v0.914H52.703z M52.893,14.896v-0.914h0.328
		c0.133,0,0.24-0.038,0.323-0.112c0.084-0.075,0.146-0.171,0.186-0.289s0.061-0.234,0.061-0.35v-1.638
		c0-0.133,0.04-0.261,0.121-0.385c0.08-0.123,0.227-0.186,0.439-0.186s0.359,0.063,0.44,0.186c0.08,0.124,0.121,0.252,0.121,0.385
		v1.638c0,0.316-0.073,0.602-0.221,0.854c-0.146,0.253-0.347,0.451-0.6,0.595s-0.543,0.216-0.871,0.216H52.893z M53.652,10.194
		c-0.149,0-0.28-0.054-0.393-0.163s-0.168-0.242-0.168-0.397s0.056-0.287,0.168-0.396s0.243-0.164,0.393-0.164
		c0.155,0,0.287,0.055,0.396,0.164s0.164,0.241,0.164,0.396s-0.055,0.288-0.164,0.397S53.808,10.194,53.652,10.194z M55.481,14.896
		c-0.322,0-0.611-0.072-0.867-0.216s-0.457-0.342-0.604-0.595c-0.146-0.253-0.22-0.538-0.22-0.854h1.122
		c0,0.121,0.02,0.238,0.06,0.354c0.041,0.115,0.104,0.21,0.19,0.285c0.086,0.074,0.192,0.112,0.319,0.112h0.189v0.914H55.481z
		 M54.351,8.909c-0.149,0-0.272-0.05-0.37-0.151c-0.099-0.101-0.147-0.223-0.147-0.367c0-0.149,0.049-0.273,0.147-0.371
		c0.098-0.098,0.221-0.146,0.37-0.146c0.145,0,0.267,0.049,0.367,0.146c0.101,0.098,0.15,0.219,0.15,0.363
		c0,0.149-0.05,0.274-0.15,0.375S54.495,8.909,54.351,8.909z M55.05,10.194c-0.149,0-0.28-0.054-0.393-0.163
		s-0.168-0.242-0.168-0.397s0.056-0.287,0.168-0.396S54.9,9.073,55.05,9.073c0.161,0,0.295,0.055,0.401,0.164
		s0.159,0.241,0.159,0.396s-0.053,0.288-0.159,0.397S55.211,10.194,55.05,10.194z M55.671,14.896v-0.914h0.328
		c0.132,0,0.24-0.038,0.323-0.112c0.083-0.075,0.146-0.171,0.186-0.289s0.061-0.234,0.061-0.35v-1.906
		c0-0.133,0.04-0.261,0.12-0.384c0.081-0.124,0.228-0.186,0.44-0.186s0.359,0.062,0.439,0.186c0.081,0.123,0.121,0.251,0.121,0.384
		v1.906c0,0.316-0.073,0.602-0.22,0.854s-0.347,0.451-0.6,0.595s-0.544,0.216-0.871,0.216H55.671z M58.259,14.896
		c-0.322,0-0.611-0.072-0.867-0.216s-0.457-0.342-0.604-0.595s-0.22-0.538-0.22-0.854h1.121c0,0.115,0.021,0.231,0.061,0.35
		s0.104,0.214,0.189,0.289c0.087,0.074,0.193,0.112,0.319,0.112h0.44v0.914H58.259z M58.699,14.896v-0.914
		c0.063,0,0.107,0.041,0.134,0.125c0.025,0.083,0.038,0.193,0.038,0.332c0,0.138-0.013,0.249-0.038,0.332
		C58.807,14.854,58.762,14.896,58.699,14.896z"/>
	<path class="st0" d="M58.699,14.896c-0.058,0-0.101-0.042-0.13-0.125c-0.028-0.083-0.043-0.194-0.043-0.332
		c0-0.139,0.015-0.249,0.043-0.332c0.029-0.084,0.072-0.125,0.13-0.125V14.896z M58.699,14.896v-0.914h0.44
		c0.132,0,0.239-0.038,0.323-0.112c0.083-0.075,0.145-0.171,0.186-0.289c0.04-0.118,0.061-0.234,0.061-0.35v-2.76
		c0-0.207-0.026-0.356-0.078-0.448S59.521,9.87,59.458,9.84c-0.063-0.028-0.111-0.052-0.146-0.068c0-0.052,0.021-0.123,0.064-0.212
		c0.044-0.089,0.115-0.171,0.216-0.246c0.101-0.074,0.234-0.111,0.401-0.111c0.173,0,0.32,0.044,0.444,0.133
		c0.124,0.09,0.22,0.212,0.289,0.367s0.104,0.334,0.104,0.535v2.993c0,0.316-0.073,0.602-0.22,0.854s-0.347,0.451-0.6,0.595
		s-0.544,0.216-0.871,0.216H58.699z"/>
	<path class="st0" d="M62.719,14.896c-0.213,0-0.359-0.062-0.439-0.186c-0.081-0.124-0.121-0.257-0.121-0.401V10.47
		c0-0.207-0.025-0.356-0.077-0.448S61.972,9.87,61.908,9.84c-0.063-0.028-0.112-0.052-0.146-0.068c0-0.047,0.021-0.115,0.064-0.207
		c0.043-0.093,0.115-0.176,0.216-0.251c0.101-0.074,0.237-0.111,0.409-0.111c0.167,0,0.313,0.044,0.437,0.133
		c0.123,0.09,0.22,0.212,0.288,0.367c0.069,0.155,0.104,0.334,0.104,0.535v4.088c0,0.132-0.041,0.26-0.121,0.384
		C63.078,14.834,62.932,14.896,62.719,14.896z"/>
</g>
<g>
	<path class="st1" d="M14.127,18.904c0,0.23-1.999,0.417-4.465,0.417s-4.465-0.187-4.465-0.417c0-0.23,1.999-0.417,4.465-0.417
		S14.127,18.673,14.127,18.904z"/>
	<path class="st1" d="M61.488,18.731c0,0.325-9.964,0.589-22.256,0.589s-22.256-0.264-22.256-0.589
		c0-0.325,9.964-0.589,22.256-0.589S61.488,18.406,61.488,18.731z"/>
	<g>
		<g>
			<path class="st0" d="M13.632,13.811H5.934c-0.147,0-0.28-0.086-0.341-0.219L3.368,8.746C3.173,8.319,2.743,8.044,2.274,8.044
				H0.961c-0.217,0-0.392,0.175-0.392,0.391s0.175,0.391,0.392,0.391h1.313c0.165,0,0.315,0.097,0.384,0.246l2.224,4.846
				c0.188,0.41,0.601,0.675,1.052,0.675h7.698c0.566,0,1.027,0.461,1.027,1.027c0,0.228-0.074,0.44-0.201,0.61
				c-0.188,0.253-0.488,0.417-0.826,0.417H5.361c-0.216,0-0.391,0.174-0.391,0.391c0,0.215,0.175,0.391,0.391,0.391H6.79
				c-0.078,0.094-0.127,0.213-0.127,0.344c0,0.298,0.242,0.54,0.54,0.54c0.298,0,0.54-0.242,0.54-0.54
				c0-0.131-0.049-0.25-0.127-0.344h4.493c-0.047,0.057-0.082,0.123-0.103,0.196c-0.013,0.047-0.02,0.097-0.02,0.148
				c0,0.298,0.242,0.54,0.54,0.54c0.237,0,0.437-0.152,0.511-0.363c0.019-0.055,0.03-0.115,0.03-0.177
				c0-0.131-0.047-0.251-0.123-0.344h0.688c0.719,0,1.34-0.42,1.632-1.029c0.114-0.236,0.177-0.501,0.177-0.78
				C15.441,14.622,14.63,13.811,13.632,13.811z"/>
			<g>
				<path class="st0" d="M13.786,12.97c-0.073,0.104-0.192,0.167-0.321,0.167H7.053c-0.124,0-0.241-0.058-0.314-0.158
					c-0.074-0.1-0.097-0.228-0.061-0.347l0.616-2.026l0.96-3.158C8.305,7.283,8.457,7.17,8.629,7.17h2.618v-0.46
					c0-0.003,0-0.007,0.001-0.011c0.003-0.204-0.054-0.808-0.369-1.13c-0.154-0.157-0.357-0.234-0.619-0.234
					c-0.981,0-1.061,0.865-1.067,1.038C9.185,6.59,9.005,6.759,8.791,6.753c-0.216-0.005-0.385-0.183-0.38-0.398
					c0.014-0.622,0.418-1.8,1.848-1.8c0.479,0,0.876,0.159,1.182,0.472c0.591,0.607,0.59,1.589,0.588,1.688v0.846
					c0,0.217-0.175,0.392-0.391,0.392h-2.72L7.835,11.52l-0.254,0.834h5.325l-1.134-3.102c-0.074-0.203,0.03-0.427,0.232-0.501
					c0.203-0.074,0.428,0.03,0.502,0.232l1.326,3.627C13.877,12.731,13.859,12.865,13.786,12.97z"/>
			</g>
		</g>
		<g>
			<path class="st2" d="M8.918,7.953L7.835,11.52c-0.195-0.295-0.376-0.6-0.54-0.914l0.96-3.158C8.305,7.283,8.457,7.17,8.629,7.17
				h2.618v-0.46c0-0.003,0-0.007,0.001-0.011c0.003-0.204-0.054-0.808-0.369-1.13c-0.154-0.157-0.357-0.234-0.619-0.234
				c-0.981,0-1.061,0.865-1.067,1.038C9.185,6.59,9.005,6.759,8.791,6.753c-0.216-0.005-0.385-0.183-0.38-0.398
				c0.014-0.622,0.418-1.8,1.848-1.8c0.479,0,0.876,0.159,1.182,0.472c0.591,0.607,0.59,1.589,0.588,1.688v0.846
				c0,0.217-0.175,0.392-0.391,0.392H8.918z"/>
			<path class="st2" d="M13.465,13.137h-4.34c-0.242-0.249-0.47-0.511-0.687-0.782h4.467l-1.134-3.102
				c-0.074-0.203,0.03-0.427,0.232-0.501c0.203-0.074,0.428,0.03,0.502,0.232l1.326,3.627c0.045,0.12,0.027,0.254-0.047,0.359
				C13.713,13.074,13.594,13.137,13.465,13.137z"/>
			<path class="st2" d="M15.441,15.62c0,0.279-0.064,0.545-0.177,0.78c-0.272-0.047-0.541-0.103-0.806-0.17
				c0.126-0.171,0.201-0.382,0.201-0.61c0-0.566-0.461-1.027-1.027-1.027h-2.793c-0.35-0.241-0.687-0.502-1.006-0.782h3.799
				C14.63,13.811,15.441,14.622,15.441,15.62z"/>
		</g>
	</g>
</g>
<g>
	<path class="st0" d="M4.51,15.143c0,0.027,0.009,0.052,0.024,0.074c0.015,0.021,0.036,0.042,0.061,0.062s0.054,0.038,0.085,0.058
		c0.032,0.018,0.064,0.037,0.098,0.059c0.034,0.02,0.066,0.042,0.098,0.066s0.061,0.052,0.086,0.082s0.046,0.065,0.062,0.104
		s0.024,0.082,0.025,0.131v0.008c0,0.054-0.006,0.1-0.02,0.14s-0.03,0.074-0.052,0.103s-0.046,0.053-0.075,0.07
		c-0.029,0.02-0.059,0.034-0.09,0.045s-0.063,0.019-0.096,0.023s-0.063,0.007-0.091,0.008h-0.01c-0.055,0-0.104-0.006-0.146-0.017
		s-0.078-0.026-0.107-0.044c-0.03-0.02-0.055-0.04-0.075-0.064S4.252,16,4.24,15.975c-0.012-0.026-0.02-0.052-0.025-0.077
		s-0.008-0.049-0.008-0.071s0.004-0.043,0.012-0.06s0.018-0.03,0.031-0.042c0.013-0.01,0.027-0.019,0.044-0.023
		s0.034-0.008,0.052-0.008c0.017,0,0.034,0.003,0.052,0.008s0.034,0.014,0.049,0.023c0.015,0.012,0.027,0.025,0.036,0.041
		c0.009,0.018,0.015,0.036,0.015,0.059c0.001,0.049,0.012,0.082,0.033,0.1c0.021,0.019,0.051,0.027,0.09,0.027
		c0.02-0.001,0.038-0.003,0.054-0.008c0.017-0.004,0.031-0.012,0.042-0.021c0.012-0.012,0.021-0.025,0.028-0.043
		c0.007-0.019,0.01-0.041,0.01-0.068c0-0.034-0.008-0.064-0.023-0.092s-0.035-0.053-0.06-0.076s-0.053-0.046-0.085-0.066
		c-0.032-0.021-0.064-0.043-0.098-0.064c-0.033-0.021-0.065-0.043-0.097-0.066c-0.032-0.022-0.06-0.048-0.085-0.075
		s-0.046-0.058-0.061-0.091s-0.023-0.071-0.024-0.113V15.15c0-0.069,0.01-0.128,0.028-0.174s0.044-0.083,0.079-0.11
		s0.078-0.047,0.128-0.058c0.051-0.012,0.109-0.018,0.175-0.018h0.025c0.06,0,0.111,0.007,0.152,0.02s0.076,0.029,0.104,0.05
		s0.049,0.043,0.065,0.068s0.028,0.051,0.036,0.075s0.013,0.048,0.015,0.069s0.003,0.039,0.003,0.052
		c0,0.02-0.004,0.037-0.011,0.053c-0.007,0.017-0.018,0.03-0.03,0.041s-0.028,0.02-0.045,0.025c-0.017,0.007-0.036,0.01-0.056,0.01
		c-0.016,0-0.031-0.003-0.047-0.01c-0.016-0.006-0.03-0.014-0.042-0.023s-0.022-0.021-0.03-0.033
		c-0.008-0.014-0.012-0.026-0.012-0.039c0-0.054-0.01-0.091-0.029-0.111s-0.047-0.031-0.084-0.031c-0.018,0-0.035,0.001-0.051,0.003
		s-0.031,0.007-0.044,0.017c-0.013,0.008-0.023,0.021-0.03,0.04S4.51,15.109,4.51,15.143z"/>
	<path class="st0" d="M5.211,15.366c0-0.02,0.001-0.039,0.003-0.058s0.006-0.035,0.013-0.05c0.007-0.015,0.018-0.027,0.031-0.036
		s0.033-0.014,0.057-0.014s0.042,0.005,0.057,0.014c0.014,0.009,0.024,0.021,0.031,0.036c0.007,0.015,0.012,0.031,0.013,0.05
		c0.002,0.019,0.003,0.038,0.003,0.058v0.215h0.188v-0.215c0-0.02,0-0.039,0.002-0.058s0.006-0.035,0.013-0.05
		c0.007-0.015,0.018-0.027,0.031-0.036s0.033-0.014,0.057-0.014s0.042,0.005,0.057,0.014c0.014,0.009,0.024,0.021,0.031,0.036
		c0.007,0.015,0.012,0.031,0.014,0.05c0.001,0.019,0.002,0.038,0.002,0.058v0.643c0,0.021-0.001,0.039-0.002,0.058
		c-0.002,0.02-0.006,0.036-0.014,0.051c-0.007,0.015-0.018,0.026-0.031,0.035c-0.014,0.009-0.033,0.014-0.057,0.014
		s-0.043-0.005-0.057-0.014s-0.024-0.021-0.031-0.035c-0.007-0.015-0.011-0.031-0.013-0.051c-0.002-0.019-0.002-0.037-0.002-0.058
		v-0.227H5.419v0.227c0,0.021-0.001,0.039-0.003,0.058c-0.001,0.02-0.006,0.036-0.013,0.051c-0.007,0.015-0.018,0.026-0.031,0.035
		c-0.014,0.009-0.033,0.014-0.057,0.014s-0.043-0.005-0.057-0.014s-0.024-0.021-0.031-0.035c-0.007-0.015-0.011-0.031-0.013-0.051
		c-0.002-0.019-0.003-0.037-0.003-0.058V15.366z"/>
	<path class="st0" d="M6.607,15.82c0.001,0.031,0.002,0.063,0.003,0.095s0.002,0.063,0.002,0.094v0.021c0,0.018,0,0.034-0.002,0.05
		c-0.001,0.017-0.004,0.031-0.01,0.044c-0.006,0.014-0.015,0.023-0.028,0.031c-0.013,0.008-0.031,0.012-0.054,0.012
		c-0.024,0-0.042-0.004-0.055-0.012s-0.022-0.018-0.028-0.03c-0.006-0.013-0.01-0.027-0.011-0.044
		c-0.001-0.017-0.001-0.033-0.001-0.051v-0.096H6.149v0.096c0,0.018,0,0.034-0.002,0.051c-0.001,0.017-0.004,0.031-0.011,0.044
		s-0.016,0.022-0.028,0.03s-0.031,0.012-0.055,0.012c-0.024,0-0.042-0.004-0.055-0.012s-0.022-0.018-0.028-0.031
		c-0.006-0.013-0.009-0.027-0.01-0.044c0-0.016-0.001-0.032-0.001-0.05v-0.021c0-0.014,0-0.029,0-0.045c0-0.017,0-0.032,0.001-0.049
		s0.001-0.032,0.001-0.049s0.001-0.031,0.001-0.046c0.023-0.079,0.047-0.16,0.072-0.241s0.049-0.162,0.072-0.241
		c0.004-0.018,0.01-0.033,0.017-0.049c0.006-0.017,0.015-0.03,0.025-0.041c0.011-0.012,0.024-0.021,0.041-0.028
		s0.038-0.011,0.063-0.011H6.32c0.025,0,0.046,0.004,0.063,0.011s0.03,0.017,0.041,0.028c0.011,0.011,0.019,0.024,0.025,0.041
		c0.006,0.016,0.012,0.031,0.017,0.049L6.607,15.82z M6.178,15.753h0.217l-0.101-0.366H6.279L6.178,15.753z"/>
	<path class="st0" d="M7.199,15.944c-0.013,0-0.025-0.002-0.034-0.007c-0.009-0.006-0.017-0.012-0.024-0.02
		s-0.013-0.017-0.018-0.026c-0.005-0.009-0.009-0.019-0.012-0.027l-0.13-0.375H6.964v0.57c0,0.015-0.001,0.028-0.003,0.041
		c-0.001,0.013-0.006,0.023-0.012,0.033c-0.006,0.01-0.015,0.018-0.027,0.023s-0.029,0.009-0.05,0.009
		c-0.023,0-0.042-0.003-0.056-0.009s-0.024-0.014-0.031-0.023s-0.011-0.021-0.013-0.033S6.77,16.074,6.77,16.06v-0.694
		c0-0.02,0.001-0.039,0.002-0.058s0.005-0.035,0.011-0.05s0.017-0.026,0.03-0.035c0.014-0.009,0.034-0.014,0.059-0.014h0.093
		c0.016,0,0.028,0.001,0.039,0.002s0.021,0.005,0.03,0.012c0.009,0.006,0.018,0.017,0.027,0.031
		c0.009,0.015,0.019,0.035,0.029,0.063c0.011,0.026,0.023,0.061,0.037,0.102S7.159,15.51,7.18,15.57l0.018,0.055h0.016l0.022-0.068
		c0.019-0.058,0.035-0.106,0.048-0.146c0.013-0.039,0.025-0.072,0.035-0.098c0.01-0.025,0.019-0.046,0.027-0.06
		s0.017-0.024,0.025-0.03C7.38,15.216,7.39,15.212,7.4,15.211c0.011-0.001,0.023-0.002,0.039-0.002h0.1
		c0.025,0,0.045,0.005,0.059,0.014c0.014,0.009,0.024,0.021,0.03,0.035s0.01,0.031,0.011,0.05c0.001,0.019,0.002,0.038,0.002,0.058
		v0.694c0,0.015-0.001,0.028-0.003,0.041c-0.001,0.013-0.006,0.023-0.013,0.033s-0.017,0.018-0.031,0.023s-0.032,0.009-0.056,0.009
		c-0.021,0-0.038-0.003-0.05-0.009c-0.012-0.006-0.021-0.014-0.027-0.023c-0.006-0.01-0.01-0.021-0.012-0.033
		s-0.003-0.026-0.003-0.041v-0.57H7.427l-0.128,0.375c-0.003,0.009-0.008,0.019-0.012,0.027c-0.005,0.01-0.01,0.019-0.017,0.026
		s-0.015,0.014-0.024,0.02c-0.009,0.005-0.02,0.007-0.033,0.007H7.199z"/>
	<path class="st0" d="M8.219,15.209c0.018,0,0.037,0.001,0.055,0.002c0.019,0.002,0.036,0.005,0.051,0.012s0.027,0.016,0.037,0.029
		c0.01,0.013,0.015,0.031,0.015,0.054c0,0.023-0.005,0.042-0.015,0.055c-0.009,0.013-0.021,0.022-0.037,0.029
		c-0.015,0.006-0.032,0.01-0.051,0.012c-0.019,0.001-0.037,0.002-0.055,0.002H8.056v0.186h0.086c0.018,0,0.037,0.001,0.055,0.002
		c0.018,0.001,0.035,0.005,0.049,0.011c0.014,0.006,0.026,0.016,0.035,0.028c0.009,0.013,0.014,0.03,0.014,0.052
		c0,0.023-0.005,0.041-0.014,0.053c-0.009,0.013-0.021,0.021-0.035,0.028c-0.015,0.006-0.031,0.01-0.049,0.011
		c-0.019,0.001-0.037,0.002-0.055,0.002H8.056v0.196h0.163c0.018,0,0.037,0.001,0.055,0.002c0.019,0.002,0.036,0.006,0.051,0.012
		s0.027,0.016,0.037,0.028c0.01,0.014,0.015,0.031,0.015,0.054c0,0.023-0.005,0.042-0.015,0.056
		c-0.01,0.013-0.022,0.022-0.038,0.029c-0.015,0.007-0.032,0.01-0.05,0.012c-0.019,0.001-0.037,0.002-0.055,0.002H7.951
		c-0.025,0-0.045-0.005-0.059-0.014c-0.014-0.009-0.024-0.021-0.03-0.036s-0.01-0.031-0.011-0.05
		c-0.001-0.019-0.002-0.038-0.002-0.058v-0.643c0-0.02,0-0.039,0.002-0.058c0.001-0.019,0.005-0.035,0.011-0.05
		s0.016-0.027,0.03-0.036c0.014-0.009,0.034-0.014,0.059-0.014H8.219z"/>
	<path class="st0" d="M9.972,15.85c-0.019,0-0.035-0.004-0.048-0.011s-0.025-0.017-0.035-0.027s-0.018-0.023-0.025-0.037
		s-0.013-0.027-0.017-0.04l-0.186-0.535H9.636v0.814c0,0.021-0.001,0.04-0.004,0.059s-0.008,0.034-0.017,0.049
		c-0.009,0.014-0.022,0.024-0.039,0.033c-0.017,0.008-0.041,0.012-0.071,0.012c-0.034,0-0.061-0.004-0.08-0.012
		c-0.02-0.009-0.034-0.02-0.044-0.033c-0.01-0.015-0.016-0.03-0.019-0.049s-0.004-0.038-0.004-0.059v-0.992
		c0-0.028,0.001-0.056,0.002-0.082s0.007-0.051,0.016-0.071S9.4,14.83,9.42,14.818c0.02-0.014,0.048-0.02,0.084-0.02h0.133
		c0.022,0,0.041,0.001,0.056,0.002c0.015,0.002,0.029,0.008,0.042,0.018c0.013,0.009,0.026,0.024,0.039,0.045
		s0.027,0.051,0.042,0.088c0.015,0.039,0.033,0.087,0.053,0.146c0.02,0.059,0.045,0.131,0.074,0.217l0.025,0.078h0.023l0.031-0.098
		c0.027-0.082,0.049-0.151,0.068-0.208s0.036-0.104,0.05-0.14c0.014-0.037,0.027-0.065,0.039-0.086
		c0.011-0.02,0.023-0.034,0.036-0.043c0.013-0.01,0.026-0.016,0.042-0.018c0.015-0.001,0.033-0.002,0.055-0.002h0.143
		c0.037,0,0.064,0.006,0.084,0.02c0.02,0.012,0.034,0.029,0.043,0.05s0.015,0.045,0.016,0.071s0.002,0.054,0.002,0.082v0.992
		c0,0.021-0.001,0.04-0.004,0.059s-0.009,0.034-0.019,0.049c-0.01,0.014-0.024,0.024-0.044,0.033
		c-0.02,0.008-0.046,0.012-0.08,0.012c-0.03,0-0.054-0.004-0.071-0.012c-0.017-0.009-0.03-0.02-0.039-0.033
		c-0.009-0.015-0.015-0.03-0.017-0.049s-0.004-0.038-0.004-0.059v-0.814h-0.027l-0.184,0.535c-0.005,0.013-0.011,0.026-0.018,0.04
		s-0.015,0.026-0.024,0.037s-0.021,0.021-0.034,0.027s-0.029,0.011-0.047,0.011H9.972z"/>
	<path class="st0" d="M11.461,15.82c0.001,0.031,0.002,0.063,0.003,0.095s0.002,0.063,0.002,0.094v0.021c0,0.018,0,0.034-0.002,0.05
		c-0.001,0.017-0.004,0.031-0.01,0.044c-0.006,0.014-0.015,0.023-0.028,0.031c-0.013,0.008-0.031,0.012-0.054,0.012
		c-0.024,0-0.042-0.004-0.055-0.012s-0.022-0.018-0.028-0.03c-0.006-0.013-0.01-0.027-0.011-0.044
		c-0.001-0.017-0.001-0.033-0.001-0.051v-0.096h-0.273v0.096c0,0.018,0,0.034-0.002,0.051c-0.001,0.017-0.004,0.031-0.011,0.044
		s-0.016,0.022-0.028,0.03s-0.031,0.012-0.055,0.012c-0.024,0-0.042-0.004-0.055-0.012s-0.022-0.018-0.028-0.031
		c-0.006-0.013-0.009-0.027-0.01-0.044c0-0.016-0.001-0.032-0.001-0.05v-0.021c0-0.014,0-0.029,0-0.045c0-0.017,0-0.032,0.001-0.049
		s0.001-0.032,0.001-0.049s0.001-0.031,0.001-0.046c0.023-0.079,0.047-0.16,0.072-0.241s0.049-0.162,0.072-0.241
		c0.004-0.018,0.01-0.033,0.017-0.049c0.006-0.017,0.015-0.03,0.025-0.041c0.011-0.012,0.024-0.021,0.041-0.028
		s0.038-0.011,0.063-0.011h0.068c0.025,0,0.046,0.004,0.063,0.011s0.03,0.017,0.041,0.028c0.011,0.011,0.019,0.024,0.025,0.041
		c0.006,0.016,0.012,0.031,0.017,0.049L11.461,15.82z M11.032,15.753h0.217l-0.101-0.366h-0.015L11.032,15.753z"/>
	<path class="st0" d="M11.614,15.365c0-0.02,0-0.039,0.001-0.058c0.001-0.019,0.005-0.035,0.011-0.05s0.017-0.026,0.031-0.035
		c0.014-0.009,0.034-0.014,0.059-0.014h0.226c0.056,0.003,0.106,0.015,0.15,0.035c0.019,0.01,0.037,0.021,0.055,0.034
		c0.018,0.014,0.034,0.03,0.048,0.05s0.025,0.043,0.034,0.07c0.009,0.026,0.013,0.058,0.013,0.094c0,0.007-0.001,0.017-0.002,0.029
		c-0.001,0.012-0.004,0.024-0.009,0.039c-0.004,0.015-0.011,0.029-0.018,0.045c-0.008,0.016-0.018,0.03-0.031,0.045
		c-0.013,0.014-0.028,0.026-0.047,0.038c-0.019,0.013-0.041,0.021-0.065,0.029c0.016,0.006,0.032,0.015,0.048,0.024
		c0.017,0.011,0.031,0.023,0.044,0.04c0.013,0.016,0.024,0.035,0.033,0.057c0.008,0.022,0.013,0.049,0.013,0.078v0.098
		c0,0.005,0.001,0.01,0.004,0.014c0.003,0.003,0.005,0.007,0.008,0.009c0.011,0.012,0.017,0.021,0.019,0.028
		c0.002,0.009,0.003,0.015,0.003,0.02c0,0.017-0.003,0.03-0.01,0.041s-0.015,0.02-0.025,0.026s-0.022,0.012-0.035,0.015
		c-0.013,0.003-0.026,0.005-0.04,0.005c-0.015,0-0.03-0.003-0.046-0.008s-0.03-0.012-0.042-0.021s-0.023-0.021-0.031-0.034
		c-0.008-0.014-0.012-0.029-0.012-0.047v-0.146c0-0.02-0.001-0.038-0.004-0.056c-0.003-0.017-0.008-0.031-0.016-0.043
		c-0.007-0.013-0.018-0.022-0.032-0.029s-0.032-0.01-0.054-0.01h-0.076v0.229c0,0.02-0.001,0.039-0.002,0.059
		c-0.001,0.019-0.005,0.036-0.011,0.051s-0.017,0.026-0.031,0.035s-0.034,0.014-0.06,0.014c-0.025,0-0.045-0.005-0.059-0.014
		c-0.014-0.009-0.024-0.021-0.031-0.035s-0.01-0.032-0.011-0.051c-0.001-0.02-0.001-0.039-0.001-0.059V15.365z M11.914,15.626
		c0.023-0.001,0.043-0.007,0.062-0.017c0.008-0.004,0.015-0.009,0.022-0.016c0.007-0.006,0.014-0.015,0.02-0.023
		c0.006-0.01,0.01-0.021,0.014-0.034c0.003-0.013,0.005-0.027,0.005-0.044c0-0.016-0.002-0.028-0.005-0.04
		c-0.004-0.012-0.008-0.021-0.014-0.03S12.006,15.405,12,15.399c-0.007-0.006-0.014-0.011-0.021-0.014
		c-0.018-0.009-0.037-0.014-0.059-0.016h-0.098v0.256H11.914z"/>
	<path class="st0" d="M12.394,15.365c0-0.02,0.001-0.039,0.003-0.058c0.001-0.019,0.006-0.035,0.013-0.05s0.017-0.026,0.031-0.035
		s0.032-0.014,0.056-0.014s0.043,0.005,0.058,0.014s0.024,0.021,0.032,0.035c0.007,0.015,0.011,0.031,0.013,0.05
		s0.003,0.038,0.003,0.058v0.246h0.078c0.015-0.04,0.03-0.078,0.045-0.116c0.006-0.016,0.013-0.032,0.02-0.049
		c0.007-0.018,0.014-0.034,0.021-0.051c0.006-0.017,0.013-0.032,0.019-0.048c0.006-0.015,0.012-0.028,0.017-0.04
		c0.006-0.013,0.012-0.025,0.018-0.037c0.006-0.012,0.013-0.022,0.021-0.031c0.008-0.01,0.018-0.017,0.028-0.022
		c0.01-0.005,0.022-0.008,0.036-0.008c0.013,0,0.026,0.002,0.039,0.006s0.024,0.011,0.034,0.019c0.01,0.009,0.018,0.019,0.024,0.03
		c0.006,0.012,0.009,0.025,0.009,0.041c0,0.012-0.002,0.025-0.006,0.042s-0.009,0.032-0.016,0.048l-0.123,0.292
		c0.024,0.008,0.044,0.022,0.063,0.042c0.008,0.008,0.015,0.019,0.023,0.029c0.007,0.012,0.014,0.025,0.02,0.041
		s0.011,0.033,0.014,0.053c0.004,0.021,0.006,0.042,0.006,0.067v0.097c0,0.005,0.001,0.009,0.005,0.013
		c0.003,0.003,0.007,0.007,0.011,0.011c0.009,0.011,0.015,0.02,0.016,0.027c0.001,0.008,0.002,0.014,0.002,0.019
		c0,0.017-0.003,0.03-0.009,0.041c-0.006,0.012-0.015,0.021-0.025,0.027s-0.022,0.012-0.035,0.014
		c-0.014,0.003-0.027,0.005-0.042,0.005c-0.015,0-0.03-0.003-0.046-0.007c-0.016-0.005-0.03-0.012-0.042-0.021
		c-0.013-0.009-0.023-0.021-0.031-0.035c-0.008-0.014-0.012-0.03-0.012-0.049v-0.141c0-0.02-0.001-0.038-0.004-0.056
		c-0.003-0.017-0.008-0.031-0.016-0.044c-0.007-0.013-0.018-0.022-0.032-0.029c-0.014-0.008-0.032-0.011-0.054-0.011h-0.076v0.229
		c0,0.021-0.001,0.039-0.003,0.058c-0.002,0.02-0.006,0.036-0.013,0.051c-0.007,0.015-0.018,0.026-0.032,0.035
		s-0.034,0.014-0.058,0.014s-0.042-0.005-0.056-0.014s-0.024-0.021-0.031-0.035s-0.011-0.031-0.013-0.051
		c-0.002-0.019-0.003-0.037-0.003-0.058V15.365z"/>
	<path class="st0" d="M13.545,15.209c0.018,0,0.037,0.001,0.055,0.002c0.019,0.002,0.036,0.005,0.051,0.012s0.027,0.016,0.037,0.029
		c0.01,0.013,0.015,0.031,0.015,0.054c0,0.023-0.005,0.042-0.015,0.055c-0.009,0.013-0.021,0.022-0.037,0.029
		c-0.015,0.006-0.032,0.01-0.051,0.012c-0.019,0.001-0.037,0.002-0.055,0.002h-0.163v0.186h0.086c0.018,0,0.037,0.001,0.055,0.002
		c0.018,0.001,0.035,0.005,0.049,0.011c0.014,0.006,0.026,0.016,0.035,0.028c0.009,0.013,0.014,0.03,0.014,0.052
		c0,0.023-0.005,0.041-0.014,0.053c-0.009,0.013-0.021,0.021-0.035,0.028c-0.015,0.006-0.031,0.01-0.049,0.011
		c-0.019,0.001-0.037,0.002-0.055,0.002h-0.086v0.196h0.163c0.018,0,0.037,0.001,0.055,0.002c0.019,0.002,0.036,0.006,0.051,0.012
		s0.027,0.016,0.037,0.028c0.01,0.014,0.015,0.031,0.015,0.054c0,0.023-0.005,0.042-0.015,0.056
		c-0.01,0.013-0.022,0.022-0.038,0.029c-0.015,0.007-0.032,0.01-0.05,0.012c-0.019,0.001-0.037,0.002-0.055,0.002h-0.268
		c-0.025,0-0.045-0.005-0.059-0.014c-0.014-0.009-0.024-0.021-0.03-0.036s-0.01-0.031-0.011-0.05
		c-0.001-0.019-0.002-0.038-0.002-0.058v-0.643c0-0.02,0-0.039,0.002-0.058c0.001-0.019,0.005-0.035,0.011-0.05
		s0.016-0.027,0.03-0.036c0.014-0.009,0.034-0.014,0.059-0.014H13.545z"/>
	<path class="st0" d="M14.262,15.209c0.019,0,0.037,0.001,0.055,0.002c0.019,0.002,0.035,0.005,0.05,0.012s0.027,0.016,0.037,0.029
		c0.009,0.013,0.014,0.031,0.014,0.054c0,0.023-0.005,0.041-0.014,0.054c-0.009,0.014-0.021,0.023-0.037,0.029
		c-0.015,0.007-0.032,0.011-0.05,0.012c-0.019,0.002-0.037,0.003-0.055,0.003h-0.069v0.606c0,0.02-0.001,0.039-0.002,0.058
		s-0.005,0.035-0.011,0.05s-0.017,0.026-0.031,0.035s-0.034,0.014-0.06,0.014s-0.046-0.005-0.06-0.014s-0.024-0.021-0.031-0.035
		s-0.01-0.031-0.011-0.05c-0.001-0.019-0.002-0.038-0.002-0.058v-0.606h-0.07c-0.018,0-0.037-0.001-0.055-0.003
		c-0.018-0.001-0.035-0.005-0.05-0.012c-0.015-0.006-0.027-0.016-0.037-0.029c-0.009-0.013-0.014-0.03-0.014-0.054
		c0-0.022,0.005-0.041,0.014-0.054c0.009-0.014,0.021-0.022,0.037-0.029c0.015-0.007,0.032-0.01,0.05-0.012
		c0.019-0.001,0.037-0.002,0.055-0.002H14.262z"/>
</g>
</svg>
